<mxfile host="app.diagrams.net" modified="2022-09-28T09:36:24.937Z" agent="5.0 (Macintosh; Intel Mac OS X 10_15_7) AppleWebKit/537.36 (KHTML, like Gecko) Chrome/105.0.0.0 Safari/537.36" etag="GnjfD0JMjEp4oLIMbq8e" version="20.3.7" type="github">
  <diagram name="Page-1" id="13e1069c-82ec-6db2-03f1-153e76fe0fe0">
    <mxGraphModel dx="1371" dy="769" grid="1" gridSize="10" guides="1" tooltips="1" connect="1" arrows="1" fold="1" page="1" pageScale="1" pageWidth="1100" pageHeight="850" background="none" math="0" shadow="0">
      <root>
        <mxCell id="0" />
        <mxCell id="1" parent="0" />
        <mxCell id="7baba1c4bc27f4b0-2" value="IPv4" style="shape=umlLifeline;perimeter=lifelinePerimeter;whiteSpace=wrap;html=1;container=1;collapsible=0;recursiveResize=0;outlineConnect=0;rounded=1;shadow=0;comic=0;labelBackgroundColor=none;strokeWidth=1;fontFamily=Verdana;fontSize=12;align=center;sketch=1;" parent="1" vertex="1">
          <mxGeometry x="240" y="80" width="120" height="580" as="geometry" />
        </mxCell>
        <mxCell id="809fZ5iR-EyuyenYKkPi-10" value="" style="html=1;points=[];perimeter=orthogonalPerimeter;rounded=0;shadow=0;comic=0;labelBackgroundColor=none;strokeWidth=1;fontFamily=Verdana;fontSize=12;align=center;sketch=1;" parent="7baba1c4bc27f4b0-2" vertex="1">
          <mxGeometry x="55" y="200" width="10" height="100" as="geometry" />
        </mxCell>
        <mxCell id="809fZ5iR-EyuyenYKkPi-18" value="" style="html=1;points=[];perimeter=orthogonalPerimeter;rounded=0;shadow=0;comic=0;labelBackgroundColor=none;strokeWidth=1;fontFamily=Verdana;fontSize=12;align=center;sketch=1;" parent="7baba1c4bc27f4b0-2" vertex="1">
          <mxGeometry x="55" y="380" width="10" height="40" as="geometry" />
        </mxCell>
        <mxCell id="809fZ5iR-EyuyenYKkPi-12" value="&lt;font style=&quot;font-size: 8px;&quot;&gt;bind IPv4&lt;/font&gt;" style="text;html=1;strokeColor=none;fillColor=none;align=center;verticalAlign=middle;whiteSpace=wrap;rounded=0;sketch=1;hachureGap=4;jiggle=2;fontFamily=Architects Daughter;fontSource=https%3A%2F%2Ffonts.googleapis.com%2Fcss%3Ffamily%3DArchitects%2BDaughter;fontSize=20;" parent="7baba1c4bc27f4b0-2" vertex="1">
          <mxGeometry x="65" y="190" width="60" height="30" as="geometry" />
        </mxCell>
        <mxCell id="7baba1c4bc27f4b0-3" value="IPv6" style="shape=umlLifeline;perimeter=lifelinePerimeter;whiteSpace=wrap;html=1;container=1;collapsible=0;recursiveResize=0;outlineConnect=0;rounded=1;shadow=0;comic=0;labelBackgroundColor=none;strokeWidth=1;fontFamily=Verdana;fontSize=12;align=center;sketch=1;" parent="1" vertex="1">
          <mxGeometry x="400" y="80" width="100" height="580" as="geometry" />
        </mxCell>
        <mxCell id="7baba1c4bc27f4b0-13" value="" style="html=1;points=[];perimeter=orthogonalPerimeter;rounded=0;shadow=0;comic=0;labelBackgroundColor=none;strokeWidth=1;fontFamily=Verdana;fontSize=12;align=center;sketch=1;" parent="7baba1c4bc27f4b0-3" vertex="1">
          <mxGeometry x="45" y="100" width="10" height="50" as="geometry" />
        </mxCell>
        <mxCell id="7baba1c4bc27f4b0-4" value="IPv4" style="shape=umlLifeline;perimeter=lifelinePerimeter;whiteSpace=wrap;html=1;container=1;collapsible=0;recursiveResize=0;outlineConnect=0;rounded=1;shadow=0;comic=0;labelBackgroundColor=none;strokeWidth=1;fontFamily=Verdana;fontSize=12;align=center;sketch=1;" parent="1" vertex="1">
          <mxGeometry x="540" y="80" width="100" height="580" as="geometry" />
        </mxCell>
        <mxCell id="809fZ5iR-EyuyenYKkPi-13" value="" style="html=1;points=[];perimeter=orthogonalPerimeter;rounded=0;shadow=0;comic=0;labelBackgroundColor=none;strokeWidth=1;fontFamily=Verdana;fontSize=12;align=center;sketch=1;" parent="7baba1c4bc27f4b0-4" vertex="1">
          <mxGeometry x="45" y="290" width="10" height="170" as="geometry" />
        </mxCell>
        <mxCell id="7baba1c4bc27f4b0-8" value="IPv6" style="shape=umlLifeline;perimeter=lifelinePerimeter;whiteSpace=wrap;html=1;container=1;collapsible=0;recursiveResize=0;outlineConnect=0;rounded=1;shadow=0;comic=0;labelBackgroundColor=none;strokeWidth=1;fontFamily=Verdana;fontSize=12;align=center;sketch=1;" parent="1" vertex="1">
          <mxGeometry x="100" y="80" width="115" height="660" as="geometry" />
        </mxCell>
        <mxCell id="7baba1c4bc27f4b0-9" value="" style="html=1;points=[];perimeter=orthogonalPerimeter;rounded=0;shadow=0;comic=0;labelBackgroundColor=none;strokeWidth=1;fontFamily=Verdana;fontSize=12;align=center;sketch=1;" parent="7baba1c4bc27f4b0-8" vertex="1">
          <mxGeometry x="52.5" y="70" width="10" height="180" as="geometry" />
        </mxCell>
        <mxCell id="809fZ5iR-EyuyenYKkPi-2" value="" style="html=1;points=[];perimeter=orthogonalPerimeter;rounded=0;shadow=0;comic=0;labelBackgroundColor=none;strokeWidth=1;fontFamily=Verdana;fontSize=12;align=center;sketch=1;" parent="7baba1c4bc27f4b0-8" vertex="1">
          <mxGeometry x="56.5" y="100" width="10" height="60" as="geometry" />
        </mxCell>
        <mxCell id="809fZ5iR-EyuyenYKkPi-3" value="&lt;font style=&quot;font-size: 8px;&quot;&gt;bind IPv6&lt;/font&gt;" style="text;html=1;strokeColor=none;fillColor=none;align=center;verticalAlign=middle;whiteSpace=wrap;rounded=0;sketch=1;hachureGap=4;jiggle=2;fontFamily=Architects Daughter;fontSource=https%3A%2F%2Ffonts.googleapis.com%2Fcss%3Ffamily%3DArchitects%2BDaughter;fontSize=20;" parent="7baba1c4bc27f4b0-8" vertex="1">
          <mxGeometry x="62.5" y="60" width="60" height="30" as="geometry" />
        </mxCell>
        <mxCell id="jT5ZMK8EmbB-lzRCo2eR-5" value="" style="html=1;points=[];perimeter=orthogonalPerimeter;rounded=0;shadow=0;comic=0;labelBackgroundColor=none;strokeWidth=1;fontFamily=Verdana;fontSize=12;align=center;sketch=1;" vertex="1" parent="7baba1c4bc27f4b0-8">
          <mxGeometry x="52.5" y="470" width="10" height="135" as="geometry" />
        </mxCell>
        <mxCell id="7baba1c4bc27f4b0-36" value="start IPv4 heartbeat" style="html=1;verticalAlign=bottom;endArrow=block;labelBackgroundColor=none;fontFamily=Verdana;fontSize=12;elbow=vertical;edgeStyle=orthogonalEdgeStyle;curved=1;sketch=1;exitX=0.6;exitY=-0.004;exitDx=0;exitDy=0;exitPerimeter=0;" parent="1" source="809fZ5iR-EyuyenYKkPi-13" edge="1">
          <mxGeometry x="-0.4802" y="10" relative="1" as="geometry">
            <mxPoint x="645.6600000000001" y="350.46" as="sourcePoint" />
            <mxPoint x="600" y="370" as="targetPoint" />
            <Array as="points">
              <mxPoint x="591" y="340" />
              <mxPoint x="696" y="340" />
              <mxPoint x="696" y="390" />
            </Array>
            <mxPoint as="offset" />
          </mxGeometry>
        </mxCell>
        <mxCell id="7baba1c4bc27f4b0-40" value="POP-Machine双栈" style="shape=note;whiteSpace=wrap;html=1;size=14;verticalAlign=top;align=left;spacingTop=-6;rounded=0;shadow=0;comic=0;labelBackgroundColor=none;strokeWidth=1;fontFamily=Verdana;fontSize=12;sketch=1;" parent="1" vertex="1">
          <mxGeometry x="100" y="30" width="240" height="40" as="geometry" />
        </mxCell>
        <mxCell id="7baba1c4bc27f4b0-42" value="PoP-Manager双栈（域名/bignat）" style="shape=note;whiteSpace=wrap;html=1;size=14;verticalAlign=top;align=left;spacingTop=-6;rounded=0;shadow=0;comic=0;labelBackgroundColor=none;strokeWidth=1;fontFamily=Verdana;fontSize=12;sketch=1;" parent="1" vertex="1">
          <mxGeometry x="400" y="30" width="240" height="40" as="geometry" />
        </mxCell>
        <mxCell id="809fZ5iR-EyuyenYKkPi-5" value="" style="endArrow=classic;html=1;rounded=0;sketch=1;hachureGap=4;jiggle=2;fontFamily=Architects Daughter;fontSource=https%3A%2F%2Ffonts.googleapis.com%2Fcss%3Ffamily%3DArchitects%2BDaughter;fontSize=8;exitX=1;exitY=0.067;exitDx=0;exitDy=0;exitPerimeter=0;entryX=-0.2;entryY=0.04;entryDx=0;entryDy=0;entryPerimeter=0;" parent="1" source="809fZ5iR-EyuyenYKkPi-2" target="7baba1c4bc27f4b0-13" edge="1">
          <mxGeometry width="50" height="50" relative="1" as="geometry">
            <mxPoint x="210" y="260" as="sourcePoint" />
            <mxPoint x="260" y="210" as="targetPoint" />
          </mxGeometry>
        </mxCell>
        <mxCell id="809fZ5iR-EyuyenYKkPi-6" value="Probe IPv6 Address" style="edgeLabel;html=1;align=center;verticalAlign=middle;resizable=0;points=[];fontSize=8;fontFamily=Architects Daughter;sketch=1;" parent="809fZ5iR-EyuyenYKkPi-5" vertex="1" connectable="0">
          <mxGeometry x="0.1444" y="-2" relative="1" as="geometry">
            <mxPoint as="offset" />
          </mxGeometry>
        </mxCell>
        <mxCell id="809fZ5iR-EyuyenYKkPi-7" value="" style="endArrow=classic;html=1;rounded=0;sketch=1;hachureGap=4;jiggle=2;fontFamily=Architects Daughter;fontSource=https%3A%2F%2Ffonts.googleapis.com%2Fcss%3Ffamily%3DArchitects%2BDaughter;fontSize=8;exitX=-0.3;exitY=0.92;exitDx=0;exitDy=0;exitPerimeter=0;" parent="1" source="7baba1c4bc27f4b0-13" edge="1">
          <mxGeometry width="50" height="50" relative="1" as="geometry">
            <mxPoint x="440" y="360" as="sourcePoint" />
            <mxPoint x="170" y="226" as="targetPoint" />
          </mxGeometry>
        </mxCell>
        <mxCell id="809fZ5iR-EyuyenYKkPi-8" value="Response self IPv6 Address&lt;br&gt;and bros IPv6 Address" style="edgeLabel;html=1;align=center;verticalAlign=middle;resizable=0;points=[];fontSize=8;fontFamily=Architects Daughter;sketch=1;" parent="809fZ5iR-EyuyenYKkPi-7" vertex="1" connectable="0">
          <mxGeometry x="-0.1076" relative="1" as="geometry">
            <mxPoint as="offset" />
          </mxGeometry>
        </mxCell>
        <mxCell id="809fZ5iR-EyuyenYKkPi-14" value="" style="endArrow=classic;html=1;rounded=0;sketch=1;hachureGap=4;jiggle=2;fontFamily=Architects Daughter;fontSource=https%3A%2F%2Ffonts.googleapis.com%2Fcss%3Ffamily%3DArchitects%2BDaughter;fontSize=8;exitX=1.3;exitY=0.95;exitDx=0;exitDy=0;exitPerimeter=0;entryX=0;entryY=0.002;entryDx=0;entryDy=0;entryPerimeter=0;" parent="1" source="809fZ5iR-EyuyenYKkPi-10" target="809fZ5iR-EyuyenYKkPi-13" edge="1">
          <mxGeometry width="50" height="50" relative="1" as="geometry">
            <mxPoint x="370" y="210" as="sourcePoint" />
            <mxPoint x="420" y="160" as="targetPoint" />
          </mxGeometry>
        </mxCell>
        <mxCell id="809fZ5iR-EyuyenYKkPi-16" value="Register IPv4 &amp;amp; IPv6" style="edgeLabel;html=1;align=center;verticalAlign=middle;resizable=0;points=[];fontSize=8;fontFamily=Architects Daughter;sketch=1;" parent="809fZ5iR-EyuyenYKkPi-14" vertex="1" connectable="0">
          <mxGeometry x="0.2791" y="-1" relative="1" as="geometry">
            <mxPoint as="offset" />
          </mxGeometry>
        </mxCell>
        <mxCell id="809fZ5iR-EyuyenYKkPi-21" value="" style="endArrow=classic;html=1;rounded=0;sketch=1;hachureGap=4;jiggle=2;fontFamily=Architects Daughter;fontSource=https%3A%2F%2Ffonts.googleapis.com%2Fcss%3Ffamily%3DArchitects%2BDaughter;fontSize=8;exitX=1.1;exitY=0.9;exitDx=0;exitDy=0;exitPerimeter=0;" parent="1" source="809fZ5iR-EyuyenYKkPi-18" target="7baba1c4bc27f4b0-4" edge="1">
          <mxGeometry width="50" height="50" relative="1" as="geometry">
            <mxPoint x="350" y="300" as="sourcePoint" />
            <mxPoint x="400" y="250" as="targetPoint" />
          </mxGeometry>
        </mxCell>
        <mxCell id="809fZ5iR-EyuyenYKkPi-22" value="IPv4 Heartbeat Response" style="edgeLabel;html=1;align=center;verticalAlign=middle;resizable=0;points=[];fontSize=8;fontFamily=Architects Daughter;sketch=1;" parent="809fZ5iR-EyuyenYKkPi-21" vertex="1" connectable="0">
          <mxGeometry x="0.3969" y="-1" relative="1" as="geometry">
            <mxPoint as="offset" />
          </mxGeometry>
        </mxCell>
        <mxCell id="809fZ5iR-EyuyenYKkPi-24" value="" style="endArrow=classic;html=1;rounded=0;sketch=1;hachureGap=4;jiggle=2;fontFamily=Architects Daughter;fontSource=https%3A%2F%2Ffonts.googleapis.com%2Fcss%3Ffamily%3DArchitects%2BDaughter;fontSize=8;exitX=1.15;exitY=0.944;exitDx=0;exitDy=0;exitPerimeter=0;" parent="1" source="7baba1c4bc27f4b0-9" target="7baba1c4bc27f4b0-2" edge="1">
          <mxGeometry width="50" height="50" relative="1" as="geometry">
            <mxPoint x="200" y="350" as="sourcePoint" />
            <mxPoint x="250" y="300" as="targetPoint" />
          </mxGeometry>
        </mxCell>
        <mxCell id="809fZ5iR-EyuyenYKkPi-25" value="Tell IPv6 to IPv4" style="edgeLabel;html=1;align=center;verticalAlign=middle;resizable=0;points=[];fontSize=8;fontFamily=Architects Daughter;sketch=1;" parent="809fZ5iR-EyuyenYKkPi-24" vertex="1" connectable="0">
          <mxGeometry x="-0.0849" y="1" relative="1" as="geometry">
            <mxPoint as="offset" />
          </mxGeometry>
        </mxCell>
        <mxCell id="809fZ5iR-EyuyenYKkPi-28" value="" style="endArrow=none;html=1;rounded=0;sketch=1;hachureGap=4;jiggle=2;fontFamily=Architects Daughter;fontSource=https%3A%2F%2Ffonts.googleapis.com%2Fcss%3Ffamily%3DArchitects%2BDaughter;fontSize=8;" parent="1" source="7baba1c4bc27f4b0-4" edge="1">
          <mxGeometry width="50" height="50" relative="1" as="geometry">
            <mxPoint x="589.5" y="463" as="sourcePoint" />
            <mxPoint x="310" y="460" as="targetPoint" />
          </mxGeometry>
        </mxCell>
        <mxCell id="809fZ5iR-EyuyenYKkPi-29" value="IPv4 Heartbeat" style="edgeLabel;html=1;align=center;verticalAlign=middle;resizable=0;points=[];fontSize=8;fontFamily=Architects Daughter;sketch=1;" parent="809fZ5iR-EyuyenYKkPi-28" vertex="1" connectable="0">
          <mxGeometry x="-0.2893" y="2" relative="1" as="geometry">
            <mxPoint as="offset" />
          </mxGeometry>
        </mxCell>
        <mxCell id="jT5ZMK8EmbB-lzRCo2eR-1" value="POP-Machine双栈(bros)" style="shape=note;whiteSpace=wrap;html=1;size=14;verticalAlign=top;align=left;spacingTop=-6;rounded=0;shadow=0;comic=0;labelBackgroundColor=none;strokeWidth=1;fontFamily=Verdana;fontSize=12;sketch=1;" vertex="1" parent="1">
          <mxGeometry x="700" y="30" width="240" height="40" as="geometry" />
        </mxCell>
        <mxCell id="jT5ZMK8EmbB-lzRCo2eR-2" value="IPv6" style="shape=umlLifeline;perimeter=lifelinePerimeter;whiteSpace=wrap;html=1;container=1;collapsible=0;recursiveResize=0;outlineConnect=0;rounded=1;shadow=0;comic=0;labelBackgroundColor=none;strokeWidth=1;fontFamily=Verdana;fontSize=12;align=center;sketch=1;" vertex="1" parent="1">
          <mxGeometry x="750" y="80" width="100" height="580" as="geometry" />
        </mxCell>
        <mxCell id="jT5ZMK8EmbB-lzRCo2eR-3" value="" style="html=1;points=[];perimeter=orthogonalPerimeter;rounded=0;shadow=0;comic=0;labelBackgroundColor=none;strokeWidth=1;fontFamily=Verdana;fontSize=12;align=center;sketch=1;" vertex="1" parent="jT5ZMK8EmbB-lzRCo2eR-2">
          <mxGeometry x="45" y="470" width="10" height="110" as="geometry" />
        </mxCell>
        <mxCell id="jT5ZMK8EmbB-lzRCo2eR-8" value="" style="html=1;points=[];perimeter=orthogonalPerimeter;rounded=0;shadow=0;comic=0;labelBackgroundColor=none;strokeWidth=1;fontFamily=Verdana;fontSize=12;align=center;sketch=1;" vertex="1" parent="jT5ZMK8EmbB-lzRCo2eR-2">
          <mxGeometry x="39" y="495" width="10" height="60" as="geometry" />
        </mxCell>
        <mxCell id="jT5ZMK8EmbB-lzRCo2eR-6" value="" style="endArrow=classic;html=1;rounded=0;sketch=1;hachureGap=4;jiggle=2;fontFamily=Architects Daughter;fontSource=https%3A%2F%2Ffonts.googleapis.com%2Fcss%3Ffamily%3DArchitects%2BDaughter;fontSize=16;exitX=1.15;exitY=0.037;exitDx=0;exitDy=0;exitPerimeter=0;entryX=-0.3;entryY=0.027;entryDx=0;entryDy=0;entryPerimeter=0;" edge="1" parent="1" source="jT5ZMK8EmbB-lzRCo2eR-5" target="jT5ZMK8EmbB-lzRCo2eR-3">
          <mxGeometry width="50" height="50" relative="1" as="geometry">
            <mxPoint x="190" y="590" as="sourcePoint" />
            <mxPoint x="240" y="540" as="targetPoint" />
          </mxGeometry>
        </mxCell>
        <mxCell id="jT5ZMK8EmbB-lzRCo2eR-7" value="&lt;font style=&quot;font-size: 12px;&quot;&gt;let bros start heartbeat&amp;nbsp;&lt;/font&gt;" style="edgeLabel;html=1;align=center;verticalAlign=middle;resizable=0;points=[];fontSize=20;fontFamily=Architects Daughter;" vertex="1" connectable="0" parent="jT5ZMK8EmbB-lzRCo2eR-6">
          <mxGeometry x="-0.3132" y="-1" relative="1" as="geometry">
            <mxPoint as="offset" />
          </mxGeometry>
        </mxCell>
        <mxCell id="jT5ZMK8EmbB-lzRCo2eR-9" value="" style="endArrow=classic;html=1;rounded=0;sketch=1;hachureGap=4;jiggle=2;fontFamily=Architects Daughter;fontSource=https%3A%2F%2Ffonts.googleapis.com%2Fcss%3Ffamily%3DArchitects%2BDaughter;fontSize=12;exitX=-0.5;exitY=0.233;exitDx=0;exitDy=0;exitPerimeter=0;entryX=0.85;entryY=0.289;entryDx=0;entryDy=0;entryPerimeter=0;" edge="1" parent="1" source="jT5ZMK8EmbB-lzRCo2eR-8" target="jT5ZMK8EmbB-lzRCo2eR-5">
          <mxGeometry width="50" height="50" relative="1" as="geometry">
            <mxPoint x="870" y="640" as="sourcePoint" />
            <mxPoint x="170" y="589" as="targetPoint" />
          </mxGeometry>
        </mxCell>
        <mxCell id="jT5ZMK8EmbB-lzRCo2eR-10" value="IPv6 Heartbeat&amp;nbsp;" style="edgeLabel;html=1;align=center;verticalAlign=middle;resizable=0;points=[];fontSize=12;fontFamily=Architects Daughter;" vertex="1" connectable="0" parent="jT5ZMK8EmbB-lzRCo2eR-9">
          <mxGeometry x="-0.0225" y="1" relative="1" as="geometry">
            <mxPoint as="offset" />
          </mxGeometry>
        </mxCell>
        <mxCell id="jT5ZMK8EmbB-lzRCo2eR-12" value="" style="endArrow=classic;html=1;rounded=0;sketch=1;hachureGap=4;jiggle=2;fontFamily=Architects Daughter;fontSource=https%3A%2F%2Ffonts.googleapis.com%2Fcss%3Ffamily%3DArchitects%2BDaughter;fontSize=12;exitX=1.15;exitY=0.622;exitDx=0;exitDy=0;exitPerimeter=0;entryX=0.1;entryY=0.983;entryDx=0;entryDy=0;entryPerimeter=0;" edge="1" parent="1" source="jT5ZMK8EmbB-lzRCo2eR-5" target="jT5ZMK8EmbB-lzRCo2eR-8">
          <mxGeometry width="50" height="50" relative="1" as="geometry">
            <mxPoint x="220" y="670" as="sourcePoint" />
            <mxPoint x="270" y="620" as="targetPoint" />
          </mxGeometry>
        </mxCell>
        <mxCell id="jT5ZMK8EmbB-lzRCo2eR-14" value="IPv6 Heartbeat Response" style="edgeLabel;html=1;align=center;verticalAlign=middle;resizable=0;points=[];fontSize=12;fontFamily=Architects Daughter;" vertex="1" connectable="0" parent="jT5ZMK8EmbB-lzRCo2eR-12">
          <mxGeometry x="-0.2013" y="-1" relative="1" as="geometry">
            <mxPoint as="offset" />
          </mxGeometry>
        </mxCell>
      </root>
    </mxGraphModel>
  </diagram>
</mxfile>
